<svg width="256" height="256" viewBox="0 0 256 256" fill="none" xmlns="http://www.w3.org/2000/svg">
  <rect width="256" height="256" rx="128" fill="#E8F0E8"/>
  <circle cx="128" cy="101" r="40" fill="#DAB490"/>
  <path d="M76 211C81.8 175.2 100.1 154.8 128 154.8C155.9 154.8 174.2 175.2 180 211" fill="#8BA48C"/>
  <path d="M90 102C90 73.3 108.6 52 128 52C147.4 52 166 73.3 166 102C159.8 91.7 149.2 85 137.7 85H118.2C106.6 85 96.2 91.6 90 102Z" fill="#4A5E4E"/>
  <path d="M100 116C100 133.7 112.5 147 128 147C143.5 147 156 133.7 156 116V102C156 86.5 143.5 74 128 74C112.5 74 100 86.5 100 102V116Z" fill="#E4BE9D"/>
  <circle cx="113" cy="104" r="4" fill="#35443A"/>
  <circle cx="143" cy="104" r="4" fill="#35443A"/>
  <path d="M117 121.5C123.3 126.2 132.7 126.2 139 121.5" stroke="#6C826E" stroke-width="4.5" stroke-linecap="round"/>
</svg>
