<svg width="256" height="256" viewBox="0 0 256 256" fill="none" xmlns="http://www.w3.org/2000/svg">
  <rect width="256" height="256" rx="128" fill="#EFE6DA"/>
  <circle cx="128" cy="96" r="44" fill="#D9B891"/>
  <path d="M74 211C79.3 171.2 99.2 151.3 128 151.3C156.8 151.3 176.7 171.2 182 211" fill="#8E6B56"/>
  <path d="M84 93.5C84 69.5 102.7 52 128 52C153.3 52 172 69.5 172 93.5V101C166.8 88.4 154.9 78.7 140.3 76.5L119 73.3C104.2 71.1 90.6 79.1 84 93.5Z" fill="#5F4B3F"/>
  <circle cx="112" cy="102" r="4" fill="#3E3027"/>
  <circle cx="144" cy="102" r="4" fill="#3E3027"/>
  <path d="M116 120C122.8 125.3 133.2 125.3 140 120" stroke="#7A5945" stroke-width="4.5" stroke-linecap="round"/>
</svg>
