<svg width="256" height="256" viewBox="0 0 256 256" fill="none" xmlns="http://www.w3.org/2000/svg">
  <rect width="256" height="256" rx="128" fill="#F3E4E2"/>
  <circle cx="128" cy="101" r="42" fill="#E2B39F"/>
  <path d="M70 211C77.4 171 97.5 150.8 128 150.8C158.5 150.8 178.6 171 186 211" fill="#C88978"/>
  <path d="M84 111V94C84 63.1 103.7 44 128 44C152.3 44 172 63.1 172 94V111C166.9 91.8 152.9 77.7 135.2 73.8L115.8 69.6C100.6 66.3 86.7 74.9 84 111Z" fill="#7A5A52"/>
  <path d="M160 108C160 129.5 145.7 145 128 145C110.3 145 96 129.5 96 108V96C96 78.3 110.3 64 128 64C145.7 64 160 78.3 160 96V108Z" fill="#E6B8A6"/>
  <circle cx="112" cy="103" r="4" fill="#4A3530"/>
  <circle cx="144" cy="103" r="4" fill="#4A3530"/>
  <path d="M117 121C123.5 126 132.5 126 139 121" stroke="#8C5F54" stroke-width="4.5" stroke-linecap="round"/>
</svg>
