<svg width="480" height="640" viewBox="0 0 480 640" fill="none" xmlns="http://www.w3.org/2000/svg">
  <rect width="480" height="640" fill="#E5D3C0"/>
  <rect width="480" height="640" fill="url(#bg)"/>
  <rect x="40" y="42" width="136" height="28" rx="14" fill="white" fill-opacity="0.72"/>
  <text x="108" y="60" fill="#242424" font-family="Arial, sans-serif" font-size="15" font-weight="700" text-anchor="middle">DUMMY PHOTO</text>
  <ellipse cx="239" cy="188" rx="126" ry="156" fill="#D7B695"/>
  <path d="M112 625C128 500 178 426 240 426C302 426 352 500 368 625" fill="#D7A45D"/>
  <path d="M166 278C166 208 202 159 247 159C293 159 327 208 327 278V312C316 273 290 245 258 239L216 232C188 228 171 243 166 278Z" fill="#70513A"/>
  <ellipse cx="246" cy="295" rx="79" ry="104" fill="#EABF9F"/>
  <circle cx="221" cy="290" r="7" fill="#1E1E1E"/>
  <circle cx="274" cy="290" r="7" fill="#1E1E1E"/>
  <path d="M221 344C235 356 257 356 271 344" stroke="#9A6B4C" stroke-width="10" stroke-linecap="round"/>
  <path d="M167 281C179 227 199 191 247 190C296 189 322 219 327 282" stroke="#8A684D" stroke-width="18" stroke-linecap="round"/>
  <rect x="70" y="548" width="340" height="56" rx="28" fill="black" fill-opacity="0.18"/>
  <text x="240" y="583" fill="white" font-family="Arial, sans-serif" font-size="24" font-weight="700" text-anchor="middle">REPLACE WITH REAL PHOTO</text>
  <defs>
    <radialGradient id="bg" cx="0" cy="0" r="1" gradientUnits="userSpaceOnUse" gradientTransform="translate(280 122) rotate(136.001) scale(528.434 595.521)">
      <stop stop-color="#FFF8F2"/>
      <stop offset="0.44" stop-color="#EDD7BF"/>
      <stop offset="1" stop-color="#B8926C"/>
    </radialGradient>
  </defs>
</svg>
