<svg width="480" height="640" viewBox="0 0 480 640" fill="none" xmlns="http://www.w3.org/2000/svg">
  <rect width="480" height="640" fill="#D8DBDE"/>
  <rect width="480" height="640" fill="url(#bg)"/>
  <rect x="40" y="42" width="136" height="28" rx="14" fill="white" fill-opacity="0.72"/>
  <text x="108" y="60" fill="#242424" font-family="Arial, sans-serif" font-size="15" font-weight="700" text-anchor="middle">DUMMY PHOTO</text>
  <ellipse cx="241" cy="188" rx="132" ry="158" fill="#C5C9CC"/>
  <path d="M153 625C162 492 202 428 280 428C358 428 394 492 404 625" fill="#383C42"/>
  <path d="M168 259C168 195 210 147 268 147C326 147 362 196 362 259V313C351 276 324 250 290 245L248 239C210 234 181 244 168 259Z" fill="#49423E"/>
  <ellipse cx="265" cy="302" rx="87" ry="108" fill="#D7B297"/>
  <path d="M213 292C230 302 255 304 276 300C304 294 324 279 333 255" stroke="#BD9A83" stroke-width="10" stroke-linecap="round"/>
  <circle cx="235" cy="292" r="7" fill="#1E1E1E"/>
  <circle cx="294" cy="289" r="7" fill="#1E1E1E"/>
  <path d="M237 343C252 357 276 357 291 343" stroke="#8A5C49" stroke-width="10" stroke-linecap="round"/>
  <rect x="70" y="548" width="340" height="56" rx="28" fill="black" fill-opacity="0.18"/>
  <text x="240" y="583" fill="white" font-family="Arial, sans-serif" font-size="24" font-weight="700" text-anchor="middle">REPLACE WITH REAL PHOTO</text>
  <defs>
    <radialGradient id="bg" cx="0" cy="0" r="1" gradientUnits="userSpaceOnUse" gradientTransform="translate(286 129) rotate(133.546) scale(545.536 610.381)">
      <stop stop-color="#F4F5F6"/>
      <stop offset="0.53" stop-color="#C8CDD1"/>
      <stop offset="1" stop-color="#8B9196"/>
    </radialGradient>
  </defs>
</svg>
